<svg xmlns="http://www.w3.org/2000/svg" viewBox="0 0 240.77 150.42"><defs><style>.cls-1,.cls-2{fill:#fff}.cls-1{fill-rule:evenodd}</style></defs><path class="cls-1" d="M11.24 110.8c8.06 14.49 32.92 17.38 46.65 10.26 20-10.38 25.23-30 24.31-48.54-.9-18-9.92-40.51-31-45.1-10.77-2.36-22.67-.28-30.84 7.49-8.67 8.26-12.93 23.5-2.05 32.17 3 2.42 8.62 4 11.49.38s-.78-9.91-5.48-8.73c-1.89.48-3.85 2.93-2 5.22-1.69-4 5.36-6.63 7-1.8a4.19 4.19 0 0 1-3.82 5.62c-2.8 0-6.12-2.18-8-4.12-9.23-9.54 0-25.89 9.33-31.15 9.71-5.45 25.13-6.67 34.29.07 13.42 9.87 18.29 24.62 19.22 39.83.43 7.1-4.17 15.35-5.61 22.55-1.86 9.29-9.17 19-17.73 23.55-12.42 6.63-34.34-1-45.76-7.7z"/><path class="cls-1" d="M77.25 101.24c17.24-33.8 70-24.21 81.63 8.85 4.54 12.85 3.74 30.69-9.55 38.37-5.63 3.25-13.72 2.59-16.09-4l-.23-.61c2.38 6.61 10.46 7.26 16.1 4 13.3-7.67 14.09-25.52 9.55-38.37-11.67-33.06-64.39-42.64-81.63-8.84z"/><path class="cls-2" d="M133.41 144.9c1.9 4.13 5.68 4.1 7.67.78 3.23 4.32 11.17.05 14.11-3 .07-.15.06-.15 0 0-2.87 5.71-13.42 10.35-18.75 6.13zM10.69 68.22c-17.72 14.74-12 42.68 6.9 53.87 15.77 9.31 37.67 6.54 49-8.35 13.28-17.41-.05-41.17-19.81-41.1-10.56 0-26.32 13.69-16 25.57-1.67-9.54.37-13.08 5.69-16.06 4.63-2.59 10.06-4 14.95-1.23a18.37 18.37 0 0 1 5.09 4.58c-10.15 5 1.06 7.09 4.56 11.56 9.25 11.75-11.39 26-21.82 23.73-7.06-1.51-6.88-6.4-8.51-11.75-2.11-6.94-4.72-14.46-11.7-11-13.88 6.85-28.34-9.44-7.73-27.51z"/><path class="cls-2" d="M40.35 125.31c37.52 4.9 43.13-51.63 71.1-38.79 29.85 13.71 11.93 54.23-9.64 47.81 8.6-.29 6.05-3.4 8.65-7.22 3.27-4.79 10.17-6.47 12.79-11.87 4.56-9.44-1.3-20.11-5.47-23.39-23.45-18.56-34.6 11.79-49.84 25.06-4.75 4.13-14 9.17-20.37 9.05z"/><path class="cls-1" d="M41.51 126.12a4.69 4.69 0 0 1 .86 1.15c8.39-5.1 15.83-2.17 17.74 1.29s1.35 7.68-1.13 8.94c-2.44 1.45-3.44.72-3.77-.21s.43-1.05 1.2-1.18c1.46-.11 2.64-2.16 1.54-4.17s-3-2.6-5.49-1.15-2.7 4.35-1.58 6.55c1.34 2.36 4.94 4 8.84 1.73s4.5-7.47 2.32-11.49c-2.15-3.81-9.54-7.74-20.52-1.46z"/><path class="cls-2" d="M12.85 67.57a4.13 4.13 0 1 0 4.11 4.16 4.14 4.14 0 0 0-4.11-4.16zm118.5 10.93c2.13-.34 1.37 1.29.65 1.46-5.77 2.13-7.43 6.41-2.47 10.22 9.73 6.69 24.25-17.52-2.55-22.56-16.23-1.69-29.93 10.58-41.29 22.56-1.57 1.62-2.27-.18-1.32-1.21.52-.59 1-1.07 1.64-1.71a89.17 89.17 0 0 1 23.56-17.12c7.65-3.59 19-5 26.56-.29 15.27 9.23 2.14 27.2-7.1 20.84-7.36-6.1-.11-11.71 2.32-12.19z"/><path class="cls-1" d="M70.16 104.62c19.38-13.44 9.08-45.11-12.25-49.55-8.29-1.73-19.22.25-22.83 9.08-1.53 3.74-.46 8.66 3.81 9.58l.39.09c-4.27-.91-5.35-5.84-3.81-9.58 3.62-8.83 14.54-10.8 22.84-9.08 21.33 4.44 31.63 36.11 12.25 49.55z"/><path class="cls-2" d="M38.6 73.66c-2.7-.82-3-3.15-1.12-4.66-2.93-1.63-1-6.87.69-8.95.09-.06.09-.05 0 0-3.28 2.24-5.26 9.13-2.21 12.07zm53.79 48.9c1.69.08.85 1.21.28 1.23-4.77.72-6.72 3.74-3.51 7.45 6.41 6.67 21.36-9.6 1.61-17.71-12.18-3.86-24.63 3.39-35.23 10.78-1.46 1-1.72-.5-.82-1.14.5-.37 1-.66 1.53-1.05a69.79 69.79 0 0 1 20.78-9.41c6.43-1.54 15.33-.83 20.42 4 10.25 9.49-2.65 21.2-8.74 14.86-4.7-5.9 1.74-9.07 3.68-9.01z"/><path class="cls-1" d="M57.67 122.75a20.9 20.9 0 0 1 3.6-2c2.83-3.32 10.73-4.89 14.17-3.36s3.39 2.71 5.12 2.79.92-1.47.24-2.2c-2-2.09-7.36-2.62-10.66-2.2-4.71.61-8.26 2.48-12.46 7zm30.22-10a1.39 1.39 0 0 0 .06-.48c3.3.07 5-2 4.94-3.36s-.9-2.46-1.83-2.4-1.12.37-1.06.7.3.23.54.13a.91.91 0 0 1 1.15 1 1.21 1.21 0 0 1-1.4 1.26 1.64 1.64 0 0 1-1.56-1.64 2.09 2.09 0 0 1 2.27-2 2.85 2.85 0 0 1 2.61 2.95c0 1.47-1.47 3.85-5.71 3.87z"/><path class="cls-2" d="M62.92 65.6c1.67-5 1.11-11.84-2.63-15.18-2.23-2-6.46-2.87-9.56-2.11a8.6 8.6 0 0 0-6 6c-1.51 5.3.79 8.76 5.07 10a7.17 7.17 0 0 0 8.29-2.86 6.1 6.1 0 0 0 .49-5 3.15 3.15 0 0 0-2.22-1.8 3.41 3.41 0 0 0-3.37 1.11 3 3 0 0 0 0 3.37c.15.27.4.35.25.07a3.21 3.21 0 0 1 .09-2.84 2.44 2.44 0 0 1 2.51-1 2.92 2.92 0 0 1 1.92 1.51 4 4 0 0 1-.5 3.48 4.3 4.3 0 0 1-5.15 2.13c-2.32-.77-4.4-3.62-3.92-7.57a5.91 5.91 0 0 1 4-4.88 7.47 7.47 0 0 1 7.45 1.21c3.38 3 3.88 9.66 2.2 14.29z"/><path class="cls-2" d="M62.85 62.5c-6.43 31.78 37.76 40.57 45 19.58-5.18 6.72-6.21 2.9-10.76 2.77-7.49-.21-13.06 7-20.32 2.57-5.25-3.23-6-11.81-8.3-17l.15.29c.25.32-1.32-.73-1.29-.33-7.37-5.8.86-14.59 3.35-12.91-5.85-15.89 34.91-10.15 41.15-8.28-31.65-9.48-45.67-3.04-48.98 13.31z"/><path class="cls-1" d="M77.63 46.08c13.63-4.77 29.53 4.27 30.19 18.17.27 5.78-1.92 13.62-8.23 15.45-2.89.84-7.28-.2-8-3.94-.52-2.71 2.89-5.86 5.43-3.5 3.29 3.06.46 5.95-3.07 5.78 11.29 5.66 13.75-11.34 10.37-19.43-4-9.67-20.93-15.48-29.74-10.84z"/><path class="cls-2" d="M82.6 47.14a19.88 19.88 0 0 0 23.8-5.3c5.55-6.38 4.18-14.59-1.72-19.7-5.49-4.75-14.49.55-14.37 7.81.07 4.44 6.18 9.7 10 5.37-4.91 1.66-6.42-4.31-4.3-7.81 2.57-4.26 7.26-4.05 10.21-.29 3.64 4.65 1.57 10.61-2.88 14.08a35.86 35.86 0 0 1-7.13 4.29c-3.8 1.82-9.1.52-12.81 1.29z"/><path class="cls-2" d="M94.21 48.89c26.72-9.23 39.34 31.31 57.88 17.7 19.78-14.52.57-41.49-14.25-33.54 6.33-1.09 4.94 1.58 7.42 4 3.11 3 8.42 3.21 11.14 6.76 4.75 6.22 2.07 14.91-.49 17.94-14.38 17.11-27.1-3.43-40.25-10.85-4.09-2.31-11.62-4.61-16.27-3.56z"/><path class="cls-1" d="M97.21 47.25a5.18 5.18 0 0 1-.09 1.66c11.22 1.67 15.66 9.76 14.78 14.23-.83 4.62-4.48 7.81-7.6 7.1-3.24-.51-3.58-1.91-3.19-3 .24-1 1.16-.61 1.93-.15 1.38 1 3.94 0 4.45-2.56s-.79-4.56-4-5.07c-3.08-.56-5.6 1.86-6.24 4.63-.55 3.08 1.43 7.18 6.56 8.06 5 .91 9.5-3.31 10.54-8.47.91-5-2.74-13.9-17.13-16.44z"/><path class="cls-2" d="M137.86 41.91c1.15.22 1-.47.62-.56-4.11-.63-3.53-3.24-2.89-4.06 1.85-1.86 4.74-.43 5.2 2.56a9.1 9.1 0 0 1-1.75 6.92c-2.64 4.05-17.59 16.48-39.08.4-.31-.26-.55-.37-.86-.61-.83-.57-1.52-.48-.43.55.28.24.59.5.88.7 3.94 2.69 18.57 13.06 33.52 4.46 3.88-2.22 7.34-5.16 8.08-9.89.6-6.56-4.24-7.07-5.81-5.25-1.38 1.83.17 4.47 2.52 4.78zm-31.52-20.9c2.69.4 4.71 1.94 7.61.81 2.59-1 4.14-3.47 7.15-4.3-3.21 1.12-4.4-2-7.1-2.84-3.17-1-5.65 1.57-7.43 4.13 2.26-2.3 5.91-2.31 8.69-.93a10.94 10.94 0 0 0-9.69 3.33zm-1.25-3.98c2.3-1.44 4.84-1.59 6.31-4.33 1.31-2.45.9-5.32 2.64-7.91-1.71 2.94-4.64 1.35-7.24 2.45-3.06 1.31-3.28 4.88-3 8 .22-3.21 3-5.6 6-6.35a10.94 10.94 0 0 0-5.21 8.83zm-2.82-2.36c.34-2.7 1.82-4.75.63-7.63-1.07-2.56-3.56-4.06-4.46-7 1.2 3.18-1.89 4.45-2.67 7.17-.92 3.2 1.71 5.62 4.31 7.33-2.35-2.2-2.45-5.86-1.14-8.67a11 11 0 0 0 3.57 9.57z"/><path class="cls-2" d="M97.91 17.92c-2.7-.33-5.05.61-7.55-1.26-2.22-1.67-3.06-4.45-5.74-6.05 2.79 1.94 4.77-.74 7.6-.84 3.33-.11 5 3 6.06 6-1.56-2.81-5.08-3.81-8.12-3.22a10.94 10.94 0 0 1 8.45 5.81zm45.86 60.99c-10.69 30.09 25 44.83 35.06 25.39-6 5.83-6.45 2-10.87 1.21-7.27-1.24-7.58 5-14-.35-4.67-3.88-4.16-12.34-5.72-17.72a3 3 0 0 1 .11.3c.2.34-1.19-.9-1.22-.51-6.38-6.68 2.87-14.1 5.07-12.12-3.49-16.31 35.45-5 41.27-2.34-29.63-13.68-44.19-9.36-49.7 6.14z"/><path class="cls-2" d="M145.51 78.62a16.54 16.54 0 0 1 15.24-13.39c7-.59 11.85 4.36 12.38 10.82.5 6-7.48 9.46-12.3 5.82-2.95-2.23-3.48-8.91 1.29-9.34-3.53 2.48-.26 6.42 3.14 6.72 4.13.37 6.28-2.89 5.2-6.72-1.34-4.73-6.36-6.26-10.87-5a29.94 29.94 0 0 0-6.38 2.68c-3.09 1.66-4.81 5.85-7.15 8z"/><path class="cls-1" d="M160.51 64.94c14-2.75 28.2 8.27 26.9 21.91-.54 5.67-3.77 13-10.17 13.92-2.94.42-7.07-1.21-7.25-5-.13-2.72 3.63-5.32 5.78-2.65 2.78 3.44-.37 5.86-3.8 5.21 10.23 7.09 15-9.14 12.81-17.5-2.59-10-18.26-18-27.49-14.71z"/><path class="cls-2" d="M165.17 66.67a19.58 19.58 0 0 0 23.94-1.86c6.3-5.45 6.1-13.64 1.06-19.45-4.69-5.39-14.21-1.48-15.1 5.62-.55 4.33 4.68 10.31 9 6.62-5 .94-5.66-5.09-3.1-8.22 3.1-3.8 7.65-2.94 10 1.14 2.9 5 .05 10.56-4.77 13.33a35.42 35.42 0 0 1-7.55 3.19c-4 1.25-8.94-.75-12.67-.52z"/><path class="cls-2" d="M176.24 69.99c27.34-5.27 34 36 54 25.32 21.31-11.4 6.33-40.37-9.22-34.69 6.33-.17 4.59 2.23 6.68 4.92 2.61 3.37 7.76 4.3 9.92 8.15 3.77 6.73-.06 14.83-3 17.43-16.4 14.68-25.94-7.11-37.73-16.18-3.67-2.82-10.69-6.11-15.37-5.74z"/><path class="cls-2" d="M219.77 69.26c1.1.37 1-.33.68-.46-3.92-1.18-3-3.64-2.25-4.36 2.07-1.56 4.69.24 4.71 3.21a9 9 0 0 1-2.67 6.5c-3.13 3.58-19.44 13.62-38.16-5.05-.26-.29-.48-.44-.75-.71-.73-.67-1.42-.68-.49.47.24.28.5.57.75.81 3.46 3.17 16.29 15.31 32.05 9 4.09-1.62 7.88-4 9.26-8.52 1.49-6.32-3.15-7.49-4.93-5.92-1.59 1.61-.46 4.4 1.8 5.03z"/></svg>