<svg id="Layer_1" data-name="Layer 1" xmlns="http://www.w3.org/2000/svg" width="23" height="23" viewBox="0 0 28.29 28"><defs><style>.cls-1{fill:#fecc00}</style></defs><title>datepicker</title><rect class="cls-1" x="12.99" y="12.31" width="2.37" height="2.37" rx=".95" ry=".95"/><rect class="cls-1" x="16.88" y="12.31" width="2.37" height="2.38" rx=".95" ry=".95"/><rect class="cls-1" x="20.68" y="12.31" width="2.37" height="2.38" rx=".95" ry=".95"/><rect class="cls-1" x="5.29" y="16.11" width="2.37" height="2.37" rx=".95" ry=".95"/><rect class="cls-1" x="9.19" y="16.11" width="2.37" height="2.37" rx=".95" ry=".95"/><rect class="cls-1" x="12.99" y="16.11" width="2.37" height="2.37" rx=".95" ry=".95"/><rect class="cls-1" x="16.88" y="16.11" width="2.37" height="2.37" rx=".95" ry=".95"/><rect class="cls-1" x="20.68" y="16.11" width="2.37" height="2.37" rx=".95" ry=".95"/><rect class="cls-1" x="5.29" y="20" width="2.37" height="2.37" rx=".95" ry=".95"/><rect class="cls-1" x="9.19" y="20" width="2.37" height="2.37" rx=".95" ry=".95"/><rect class="cls-1" x="12.99" y="20" width="2.37" height="2.37" rx=".95" ry=".95"/><rect class="cls-1" x="16.88" y="20" width="2.37" height="2.37" rx=".95" ry=".95"/><rect class="cls-1" x="20.68" y="20" width="2.37" height="2.37" rx=".95" ry=".95"/><path class="cls-1" d="M468.74 394.37a1.19 1.19 0 0 0 1.19-1.19v-2.37a1.19 1.19 0 0 0-2.37 0v2.38a1.19 1.19 0 0 0 1.18 1.18zm14.26 0a1.19 1.19 0 0 0 1.19-1.19v-2.37a1.19 1.19 0 0 0-2.37 0v2.38a1.19 1.19 0 0 0 1.18 1.18z" transform="translate(-461.66 -389.62)"/><path class="cls-1" d="M488.32 391.84h-3.17v1.3a2.18 2.18 0 1 1-4.37 0v-1.3h-9.89v1.3a2 2 0 0 1-2.18 2.19 2 2 0 0 1-2.18-2.19v-1.3h-3.23c-.91 0-1.63.26-1.64 1.16v23a1.64 1.64 0 0 0 1.64 1.64h25A1.64 1.64 0 0 0 490 416s0-.06 0 0v-23c0-.9-.77-1.15-1.68-1.16zm-.61 22.49a1 1 0 0 1-1 .95h-21.85a1 1 0 0 1-1-.95v-14.55a1 1 0 0 1 1-.95h21.89a1 1 0 0 1 .95.95v14.55z" transform="translate(-461.66 -389.62)"/></svg>