<svg data-name="Layer 1" xmlns="http://www.w3.org/2000/svg" viewBox="0 0 119.18 33.45"><title>wedes</title><text transform="translate(44.14 30.7)" font-size="11" fill="#706d6d" font-family="Myriad Pro" font-weight="700">WEB-STUDIO WEDES</text><text transform="translate(56.02 18.41)" font-size="12" fill="#706d6d" font-family="Myriad Pro">створення сайту</text><path d="M30.29 14.47a.74.74 0 0 1 .55.64.85.85 0 0 1-.69.5.66.66 0 0 1-.56-.55 1 1 0 0 1 .7-.59zm-14.3-6.38c.92 2.57-1.79 3.07-3.38 3.12a1.87 1.87 0 0 0 .06-.27c.14-1.27-2.28-.07-2.6 0-1.71.64-.57-.74.13-1.2l.12-.08s0-.07 0 0c.53-.36-.38.15-1.19.06s-2.26-.69-1.06-1.35c1-.56 3.71-.07 3.7-.07a12.6 12.6 0 0 1-2.25-.92c-.67-.33-2.3-1.29-2.1-2 .43-1.68 7.59-.03 8.57 2.71zm2.6-.38l-1.26-.42a1.9 1.9 0 0 0 .15-.22c.59-1.08-1.65-.82-2-.83-1.58-.07-.17-.87.55-1s-.18 0-.84-.41-1.52-1.45-.33-1.6c1-.13 3 1.31 2.95 1.3a10.82 10.82 0 0 1-1.43-1.65c-.41-.54-1.34-2-.9-2.59 1.21-1.63 7.74 4.64 5.1 7.1a1.81 1.81 0 0 1-1.99.32z" fill="#706d6d" fill-rule="evenodd"/><path d="M1.73 21.01a7.79 7.79 0 0 0 .84-2.83 1.89 1.89 0 0 0-.47-1.14c1.31-2.79 1.49-3.63 4.35-5a12.59 12.59 0 0 0-1.47 2 14.49 14.49 0 0 0-2.2 5.85 38.17 38.17 0 0 0-.25 4.33 28.24 28.24 0 0 0 1 6.93h4.85v-5.21l1.54 5.21h4.93l-1.46-4.82.73.15a28.46 28.46 0 0 0 3.69.28l.12 4.39h4.76l-.16-4.68 1.51-.15.54 4.82h4.5l.09-6.3a2.18 2.18 0 0 0-1.38-2.28 4 4 0 0 1-2.16-3.63c0-.43.58-1.69 1.06-1.15 2.22 2.45 8.61 4.67 11.48 3.35a9 9 0 0 0 2.74-1.8 5.59 5.59 0 0 0 1.33-2.5 5.14 5.14 0 0 0 0-3c-.83-2.36-3.08-2.11-5.24-1.12a2.67 2.67 0 0 0-1.48 1c-.11.35.12.93 1 .56 1.2-.51 3.41-1.34 3.93.17a2.57 2.57 0 0 1-1.47 3.08 3.21 3.21 0 0 1-2.23.21c-1.23-.35-1.94-3-2.62-4a12.94 12.94 0 0 0-5.29-4.6 16.21 16.21 0 0 0-6.7-1.72 2 2 0 0 1-.44.49 3.58 3.58 0 0 1-2.55.95 2.82 2.82 0 0 1-2-.56 1.26 1.26 0 0 1-.38-.78l-.55.06c.68.67 1.32 1.77.91 2.61-.64 1.33-3 2.34-4.28 2.36-.69 0-1.35-.2-1.27-.46s.09-.55-.36-.54c-.82 0-1.56.63-2.45.63a.76.76 0 0 1-.54-1.06 2.41 2.41 0 0 1 .73-.73 1.1 1.1 0 0 1-.38 0H8.4c-.2.14-.53.37-.72.52-3.63 1.85-5.38 2.64-6.63 6.52-.19.2-.36.4-.52.59-1.06 1.24-.52 2.25 1.2 3zm26.19-5.47c.08-.58 1.14-2.39 2.13-2.39s1.8 2.2 1.72 2.78A2.08 2.08 0 0 1 30 17.05c-.59 0-2.15-.93-2.08-1.51zm-.6 15.17c0-.14.19-.66.23-.76a.66.66 0 0 1 .77-.49 1.56 1.56 0 0 1 .3 1.24h-1.29zm-1.5 0c0-.14.19-.66.23-.76a.66.66 0 0 1 .8-.48 1.56 1.56 0 0 1 .3 1.24h-1.3zm-4.89 0c0-.14.19-.66.23-.76a.66.66 0 0 1 .77-.49 1.57 1.57 0 0 1 .3 1.24h-1.29zm-1.5 0c0-.14.19-.66.23-.76a.66.66 0 0 1 .77-.49 1.57 1.57 0 0 1 .3 1.24h-1.29zm-1.19-20.37a5.36 5.36 0 0 1 3.85-.54 3.74 3.74 0 0 1 2.3 1.85c.07.14-.42.66-.62.38-1.14-1.73-3.46-1.22-4-1a4.68 4.68 0 0 0-2.78 3.25 5.69 5.69 0 0 0 .87 4.61c.28.67.14 1.46.49 2.28a2.07 2.07 0 0 0 1.51 1.23 2 2 0 0 0 .45.06c1.19.07 1.93-.54 3.53-2.74.14-.2.71.28.6.48-1.19 2.15-3.21 3.62-4.47 3.49l-.42-.08a2.62 2.62 0 0 1-1.65-1.46q-.52-1.16-1-2.34l-1.25-2.13c-1.17-1.99.28-6.21 2.6-7.34zm-5.39 20.37c0-.14.19-.66.23-.76a.66.66 0 0 1 .77-.48 1.57 1.57 0 0 1 .3 1.24h-1.3zm-1.5 0c0-.14.19-.66.23-.76a.66.66 0 0 1 .77-.49 1.57 1.57 0 0 1 .3 1.24h-1.3zm-4.81 0c0-.14.19-.66.23-.76a.66.66 0 0 1 .77-.49 1.56 1.56 0 0 1 .3 1.24H6.55zm-1.5 0c0-.14.19-.66.23-.76a.66.66 0 0 1 .77-.49 1.57 1.57 0 0 1 .3 1.24H5.05z" fill="#706d6d" fill-rule="evenodd"/></svg>